HIERARCHY
ROOT Pelvis
{
	OFFSET 0.000000 0.000000 0.000000
	CHANNELS 6 Xposition Yposition Zposition Xrotation Yrotation Zrotation
	JOINT LeftUpLeg_virtual
	{
		OFFSET 0.000000 0.000000 0.000000
		CHANNELS 3 Xrotation Yrotation Zrotation
		JOINT LeftUpLeg
		{
			OFFSET 18.735201 -5.666702 -4.541200
			CHANNELS 3 Xrotation Yrotation Zrotation
			JOINT LeftLeg
			{
				OFFSET -0.021200 -31.938179 0.493100
				CHANNELS 3 Xrotation Yrotation Zrotation
				JOINT LeftFoot
				{
					OFFSET 0.021200 -31.938179 -4.336299
					CHANNELS 3 Xrotation Yrotation Zrotation
					JOINT LeftToeBase
					{
						OFFSET 0.943001 -26.722000 15.023500
						CHANNELS 3 Xrotation Yrotation Zrotation
						End Site
						{
							OFFSET 0 0 0
						}
					}
				}
			}
		}
	}
	JOINT RightUpLeg_virtual
	{
		OFFSET 0.000000 0.000000 0.000000
		CHANNELS 3 Xrotation Yrotation Zrotation
		JOINT RightUpLeg
		{
			OFFSET -18.735201 -5.666702 -4.541200
			CHANNELS 3 Xrotation Yrotation Zrotation
			JOINT RightLeg
			{
				OFFSET 0.018946 -31.938133 0.493100
				CHANNELS 3 Xrotation Yrotation Zrotation
				JOINT RightFoot
				{
					OFFSET -0.018946 -31.938126 -4.336299
					CHANNELS 3 Xrotation Yrotation Zrotation
					JOINT RightToeBase
					{
						OFFSET -0.943001 -26.722004 15.023500
						CHANNELS 3 Xrotation Yrotation Zrotation
						End Site
						{
							OFFSET 0 0 0
						}
					}
				}
			}
		}
	}
	JOINT Hips_virtual
	{
		OFFSET 0.000000 0.000000 0.000000
		CHANNELS 3 Xrotation Yrotation Zrotation
		JOINT Hips
		{
			OFFSET -0.000000 -0.000000 -0.000000
			CHANNELS 3 Xrotation Yrotation Zrotation
			JOINT Spine
			{
				OFFSET 0.000000 10.199997 -0.299500
				CHANNELS 3 Xrotation Yrotation Zrotation
				JOINT Spine1
				{
					OFFSET 0.000000 11.900002 -1.516600
					CHANNELS 3 Xrotation Yrotation Zrotation
					JOINT Spine2
					{
						OFFSET 0.000000 13.600006 -2.842500
						CHANNELS 3 Xrotation Yrotation Zrotation
						JOINT Neck_virtual
						{
							OFFSET 0.000000 0.000000 0.000000
							CHANNELS 3 Xrotation Yrotation Zrotation
							JOINT Neck
							{
								OFFSET 0.000000 9.624100 -2.890100
								CHANNELS 3 Xrotation Yrotation Zrotation
								JOINT Head
								{
									OFFSET 0.000000 14.068802 -1.351900
									CHANNELS 3 Xrotation Yrotation Zrotation
									End Site
									{
										OFFSET 0 0 0
									}
								}
							}
						}
						JOINT LeftShoulder_virtual
						{
							OFFSET 0.000000 0.000000 0.000000
							CHANNELS 3 Xrotation Yrotation Zrotation
							JOINT LeftShoulder
							{
								OFFSET 15.263000 10.923401 -0.547700
								CHANNELS 3 Xrotation Yrotation Zrotation
								JOINT LeftArm
								{
									OFFSET 25.438599 -2.830597 -13.032500
									CHANNELS 3 Xrotation Yrotation Zrotation
									JOINT LeftForeArm
									{
										OFFSET 29.960503 0.000000 0.000000
										CHANNELS 3 Xrotation Yrotation Zrotation
										JOINT LeftHand
										{
											OFFSET 27.849251 0.000000 0.000000
											CHANNELS 3 Xrotation Yrotation Zrotation
											End Site
											{
												OFFSET 0 0 0
											}
										}
									}
								}
							}
						}
						JOINT RightShoulder_virtual
						{
							OFFSET 0.000000 0.000000 0.000000
							CHANNELS 3 Xrotation Yrotation Zrotation
							JOINT RightShoulder
							{
								OFFSET -15.263000 10.923401 -0.547700
								CHANNELS 3 Xrotation Yrotation Zrotation
								JOINT RightArm
								{
									OFFSET -25.438599 -2.830597 -13.032500
									CHANNELS 3 Xrotation Yrotation Zrotation
									JOINT RightForeArm
									{
										OFFSET -29.960503 0.000000 0.000000
										CHANNELS 3 Xrotation Yrotation Zrotation
										JOINT RightHand
										{
											OFFSET -27.849251 0.000000 0.000000
											CHANNELS 3 Xrotation Yrotation Zrotation
											End Site
											{
												OFFSET 0 0 0
											}
										}
									}
								}
							}
						}
					}
				}
			}
		}
	}
}
MOTION
Frames: 9
Frame Time: 0.03333333
0.377324 69.413658 2.676197 0.000000 0.000000 0.000000 16.557272 -8.661792 -4.340616 -93.886851 0.013719 0.496175 50.500076 11.348897 -3.614748 17.681010 26.184910 16.726457 0.000000 0.000000 0.000000 16.557272 -8.661792 -4.340616 18.014294 -13.229460 5.831661 36.899472 -9.686204 8.173815 -26.334752 -12.117464 17.227262 0.000000 0.000000 0.000000 16.557272 -8.661792 -4.340616 0.000000 -0.000001 0.000000 10.957534 14.179353 -9.149039 2.878199 4.087948 -0.126407 0.000000 0.000000 0.000000 2.848458 4.312289 -0.311449 -0.301850 -0.900148 1.784619 0.000000 0.000000 0.000000 2.848458 4.312289 -0.311449 1.187666 -1.370113 -14.873642 -9.759259 30.208410 -41.048850 0.000005 -11.762808 -0.000004 0.000000 0.000000 0.000000 2.848458 4.312289 -0.311449 2.870344 11.957085 -6.152307 -33.803638 70.877556 6.927796 -179.999868 85.290437 179.999896 0.000000 0.000000 0.000000 
-1.315985 69.703781 5.385468 0.000000 0.000000 0.000000 19.745578 -7.795589 -4.397112 -97.670783 -0.346690 1.065019 55.559347 9.495781 -3.535544 14.446188 25.857373 14.691995 0.000000 0.000000 0.000000 19.745578 -7.795589 -4.397112 2.245551 -12.820205 -1.127479 51.781693 -7.828370 9.302432 -20.553036 -13.197619 19.142338 0.000000 0.000000 0.000000 19.745578 -7.795589 -4.397112 -0.000001 0.000000 0.000000 11.853549 12.852316 -9.460893 2.894004 3.864281 -0.347307 0.000000 0.000000 0.000000 2.866447 4.074824 -0.524105 -0.371652 -0.883188 1.711227 0.000000 0.000000 0.000000 2.866447 4.074824 -0.524105 1.202246 -2.183952 -16.571265 -11.438024 28.007286 -38.630864 -0.000011 -16.749041 0.000001 0.000000 0.000000 0.000000 2.866447 4.074824 -0.524105 2.921957 12.894766 -5.335065 -27.021007 67.470255 0.787250 179.999909 82.416355 -179.999923 0.000000 0.000000 0.000000 
-2.926685 69.844521 8.051178 0.000000 0.000000 0.000000 23.068663 -7.045514 -4.511222 -101.393127 -0.852215 1.659433 60.156543 7.734464 -3.460838 11.321270 25.644304 12.835490 0.000000 0.000000 0.000000 23.068663 -7.045514 -4.511222 -11.397410 -11.200082 -7.658735 59.996457 -4.924982 9.622658 -9.726534 -13.271026 20.393466 0.000000 0.000000 0.000000 23.068663 -7.045514 -4.511222 0.000000 0.000000 0.000000 12.776679 11.499639 -9.888283 2.909746 3.626957 -0.594641 0.000000 0.000000 0.000000 2.880758 3.824572 -0.764596 -0.452421 -0.864345 1.629389 0.000000 0.000000 0.000000 2.880758 3.824572 -0.764596 1.171173 -2.879760 -18.461095 -13.275125 25.668679 -36.310693 -0.000004 -22.092930 -0.000002 0.000000 0.000000 0.000000 2.880758 3.824572 -0.764596 2.970381 13.964336 -4.451085 -21.721538 63.600263 -3.964445 179.998338 79.389188 -179.998352 0.000000 0.000000 0.000000 
-4.530252 69.884308 10.694427 0.000000 0.000000 0.000000 26.490699 -6.352217 -4.652461 -104.974666 -1.512009 2.275734 64.326414 6.009994 -3.390123 8.311240 25.535627 11.031695 0.000000 0.000000 0.000000 26.490699 -6.352217 -4.652461 -22.737814 -9.230681 -13.274422 62.946648 -1.335636 9.679625 2.540217 -13.022391 20.854022 0.000000 0.000000 0.000000 26.490699 -6.352217 -4.652461 -0.000002 0.000000 0.000000 13.711824 10.094547 -10.414126 2.924569 3.379235 -0.861976 0.000000 0.000000 0.000000 2.884678 3.564586 -1.026163 -0.543171 -0.843916 1.539958 0.000000 0.000000 0.000000 2.884678 3.564586 -1.026163 1.096438 -3.521311 -20.445159 -15.229194 23.206440 -34.170617 -0.000006 -27.626397 0.000007 0.000000 0.000000 0.000000 2.884678 3.564586 -1.026163 2.996305 15.098577 -3.522288 -17.670184 59.461598 -7.500031 179.999923 76.276438 -179.999937 0.000000 0.000000 0.000000 
-6.136768 69.956718 13.440159 0.000000 0.000000 0.000000 29.971270 -5.673904 -4.836032 -108.168326 -2.307001 2.905956 68.064932 4.282912 -3.320135 5.242852 25.512717 9.234710 0.000000 0.000000 0.000000 29.971270 -5.673904 -4.836032 -31.995027 -7.508971 -18.061815 63.266314 1.837181 9.635075 12.464094 -13.073762 21.348564 0.000000 0.000000 0.000000 29.971270 -5.673904 -4.836032 -0.000001 0.000000 0.000000 14.632507 8.656291 -10.955759 2.937487 3.127206 -1.137483 0.000000 0.000000 0.000000 2.886232 3.300548 -1.296327 -0.640886 -0.820670 1.445590 0.000000 0.000000 0.000000 2.886232 3.300548 -1.296327 0.972922 -4.240740 -22.310091 -17.174743 20.666809 -32.298728 -0.000001 -32.983865 0.000001 0.000000 0.000000 0.000000 2.886232 3.300548 -1.296327 2.977416 16.185236 -2.589786 -14.668349 55.337271 -9.918529 179.999950 73.194916 -179.999950 0.000000 0.000000 0.000000 
-7.663741 70.201530 16.426067 0.000000 0.000000 0.000000 33.463651 -5.008306 -5.104070 -110.663627 -3.175459 3.516157 71.306574 2.573919 -3.242336 1.881516 25.559066 7.515665 0.000000 0.000000 0.000000 33.463651 -5.008306 -5.104070 -39.983279 -6.058691 -22.330305 63.479799 3.039472 9.451775 17.705763 -13.570472 21.435876 0.000000 0.000000 0.000000 33.463651 -5.008306 -5.104070 0.000002 0.000000 0.000000 15.521335 7.244194 -11.426620 2.948006 2.875842 -1.411500 0.000000 0.000000 0.000000 2.885566 3.037098 -1.564898 -0.743231 -0.796762 1.347568 0.000000 0.000000 0.000000 2.885566 3.037098 -1.564898 0.796824 -5.090575 -23.953048 -19.053800 18.083730 -30.668287 -0.000004 -37.941209 -0.000014 0.000000 0.000000 0.000000 2.885566 3.037097 -1.564898 2.899947 17.134342 -1.652073 -12.446633 51.490829 -11.431095 179.999950 70.250900 -179.999950 0.000000 0.000000 0.000000 
-9.088287 70.612595 19.615294 0.000000 0.000000 0.000000 36.916435 -4.373365 -5.458902 -112.380319 -4.089677 4.116348 73.961755 0.913837 -3.148560 -1.721786 25.673916 5.905270 0.000000 0.000000 0.000000 36.916435 -4.373365 -5.458902 -47.194896 -4.715631 -26.260033 64.411109 1.959973 9.250812 18.471444 -14.518749 20.417515 0.000000 0.000000 0.000000 36.916435 -4.373365 -5.458902 -0.000002 0.000000 0.000000 16.374508 5.928304 -11.788427 2.955758 2.630100 -1.674441 0.000000 0.000000 0.000000 2.882939 2.778877 -1.821778 -0.848098 -0.772753 1.247724 0.000000 0.000000 0.000000 2.882939 2.778877 -1.821778 0.561103 -6.126424 -25.265862 -20.863359 15.515285 -29.352639 0.000008 -42.354734 0.000007 0.000000 0.000000 0.000000 2.882939 2.778877 -1.821778 2.766787 17.896520 -0.750633 -10.805318 48.042902 -12.209194 179.999923 67.478943 -179.999937 0.000000 0.000000 0.000000 
-10.508399 71.086159 22.873367 0.000000 0.000000 0.000000 40.276365 -3.776217 -5.870934 -113.448377 -5.107476 4.782762 76.016679 -0.717998 -3.038898 -5.313405 25.872632 4.305583 0.000000 0.000000 0.000000 40.276365 -3.776217 -5.870934 -53.623419 -3.710552 -29.595408 64.430206 0.099635 9.142551 17.610531 -15.518161 18.157517 0.000000 0.000000 0.000000 40.276365 -3.776217 -5.870934 0.000002 -0.000000 -0.000001 17.193738 4.759735 -12.031674 2.958334 2.395172 -1.916280 0.000000 0.000000 0.000000 2.876622 2.530733 -2.056427 -0.952947 -0.748924 1.147694 0.000000 0.000000 0.000000 2.876622 2.530733 -2.056427 0.252563 -7.650852 -25.771205 -22.274545 13.115406 -28.449546 0.000004 -45.526045 -0.000012 0.000000 0.000000 0.000000 2.876622 2.530733 -2.056427 2.557204 18.253119 -0.014230 -9.832442 45.428097 -11.957829 179.999964 65.070707 -179.999950 0.000000 0.000000 0.000000 
-12.009942 71.572876 26.128597 0.000000 0.000000 0.000000 43.489659 -3.213561 -6.327584 -113.928279 -6.279661 5.584389 77.464263 -2.346668 -2.914883 -8.723022 26.166117 2.625876 0.000000 0.000000 0.000000 43.489659 -3.213561 -6.327584 -59.280168 -2.983508 -32.246481 62.853955 -1.526450 9.133839 16.850534 -16.225476 15.063514 0.000000 0.000000 0.000000 43.489659 -3.213561 -6.327584 0.000002 0.000000 0.000000 17.979728 3.782117 -12.129446 2.959369 2.176118 -2.127140 0.000000 0.000000 0.000000 2.865466 2.297470 -2.258386 -1.055568 -0.725798 1.049278 0.000000 0.000000 0.000000 2.865466 2.297470 -2.258386 -0.039274 -9.598011 -25.378664 -23.079503 10.718913 -27.332124 0.000003 -46.828757 -0.000023 0.000000 0.000000 0.000000 2.865466 2.297470 -2.258386 2.221010 18.050889 0.915539 -9.146987 44.475405 -11.087393 179.999978 63.458359 -179.999978 0.000000 0.000000 0.000000 
